<svg width="1120" height="280" viewBox="0 0 1120 280" fill="none" xmlns="http://www.w3.org/2000/svg">
  <rect width="1120" height="280" rx="18" fill="#F8FAFC"/>
  <text x="36" y="42" fill="#0F172A" font-family="Inter, Arial, sans-serif" font-size="24" font-weight="700">British Auction Flow Diagram</text>

  <rect x="36" y="90" width="190" height="94" rx="12" fill="#E0F2FE" stroke="#0284C7"/>
  <text x="60" y="126" fill="#0C4A6E" font-family="Inter, Arial, sans-serif" font-size="15" font-weight="700">Buyer Creates RFQ</text>
  <text x="60" y="148" fill="#0C4A6E" font-family="Inter, Arial, sans-serif" font-size="13">Defines timings & rules</text>

  <rect x="258" y="90" width="190" height="94" rx="12" fill="#DBEAFE" stroke="#2563EB"/>
  <text x="282" y="126" fill="#1E3A8A" font-family="Inter, Arial, sans-serif" font-size="15" font-weight="700">Auction Activates</text>
  <text x="282" y="148" fill="#1E3A8A" font-family="Inter, Arial, sans-serif" font-size="13">Suppliers can bid live</text>

  <rect x="480" y="90" width="190" height="94" rx="12" fill="#DCFCE7" stroke="#16A34A"/>
  <text x="504" y="126" fill="#14532D" font-family="Inter, Arial, sans-serif" font-size="15" font-weight="700">Bids and Revisions</text>
  <text x="504" y="148" fill="#14532D" font-family="Inter, Arial, sans-serif" font-size="13">Ranks update in realtime</text>

  <rect x="702" y="90" width="190" height="94" rx="12" fill="#FEF3C7" stroke="#D97706"/>
  <text x="726" y="126" fill="#78350F" font-family="Inter, Arial, sans-serif" font-size="15" font-weight="700">Time Extensions</text>
  <text x="726" y="148" fill="#78350F" font-family="Inter, Arial, sans-serif" font-size="13">Trigger window rules apply</text>

  <rect x="924" y="90" width="160" height="94" rx="12" fill="#FEE2E2" stroke="#DC2626"/>
  <text x="948" y="126" fill="#7F1D1D" font-family="Inter, Arial, sans-serif" font-size="15" font-weight="700">Close & Analyze</text>
  <text x="948" y="148" fill="#7F1D1D" font-family="Inter, Arial, sans-serif" font-size="13">Winner + metrics</text>

  <path d="M226 136H258" stroke="#334155" stroke-width="3" marker-end="url(#arrowB)"/>
  <path d="M448 136H480" stroke="#334155" stroke-width="3" marker-end="url(#arrowB)"/>
  <path d="M670 136H702" stroke="#334155" stroke-width="3" marker-end="url(#arrowB)"/>
  <path d="M892 136H924" stroke="#334155" stroke-width="3" marker-end="url(#arrowB)"/>

  <defs>
    <marker id="arrowB" markerWidth="10" markerHeight="10" refX="8" refY="5" orient="auto">
      <path d="M0 0L10 5L0 10V0Z" fill="#334155"/>
    </marker>
  </defs>
</svg>
